<svg width="169" height="169" viewBox="0 0 169 169" fill="none" xmlns="http://www.w3.org/2000/svg">
<g clip-path="url(#clip0_56_1227)">
<path fill-rule="evenodd" clip-rule="evenodd" d="M84.7036 168.01H84.0337C50.6797 168.01 31.1732 164.651 17.5856 151.333C3.59808 137.066 0.368652 117.699 0.368652 84.4749V83.5351C0.368652 50.311 3.59808 30.8045 17.5856 16.677C31.3031 3.3594 50.6797 0 84.0437 0H84.7136C117.938 0 137.444 3.3594 151.152 16.677C165.139 30.9445 168.369 50.311 168.369 83.5351V84.4749C168.369 117.709 165.139 137.206 151.152 151.333C137.434 164.651 118.068 168.01 84.7036 168.01ZM147.209 81.5308C147.849 81.5608 148.369 82.0906 148.369 82.7304H148.359V85.4096C148.359 86.0594 147.839 86.5892 147.199 86.6092C124.236 87.4789 110.271 90.398 100.484 100.185C90.7067 109.962 87.7876 123.908 86.9079 146.83C86.8779 147.47 86.348 147.99 85.7082 147.99H83.0191C82.3693 147.99 81.8394 147.47 81.8195 146.83C80.9397 123.908 78.0206 109.962 68.2437 100.185C58.4668 90.408 44.4911 87.4789 21.5283 86.6092C20.8885 86.5792 20.3687 86.0494 20.3687 85.4096V82.7304C20.3687 82.0806 20.8885 81.5508 21.5283 81.5308C44.4911 80.661 58.4568 77.742 68.2437 67.955C78.0406 58.1581 80.9597 44.1624 81.8295 21.1596C81.8594 20.5198 82.3893 20 83.0291 20H85.7082C86.358 20 86.8879 20.5198 86.9079 21.1596C87.7776 44.1724 90.6967 58.1581 100.494 67.955C110.271 77.732 124.246 80.661 147.209 81.5308Z" fill="#202022"/>
</g>
<defs>
<clipPath id="clip0_56_1227">
<rect width="168.04" height="168.04" fill="white" transform="translate(0.368652)"/>
</clipPath>
</defs>
</svg>
